<?xml version="1.0" encoding="UTF-8"?>
<svg version="1.1" xmlns="http://www.w3.org/2000/svg" width="960" height="800">
<path d="M0 0 C5.61 0 11.22 0 17 0 C17 59.07 17 118.14 17 179 C41.09 179 65.18 179 90 179 C90 149.3 90 119.6 90 89 C95.61 89 101.22 89 107 89 C107 118.7 107 148.4 107 179 C247.25 179 387.5 179 532 179 C532 184.61 532 190.22 532 196 C391.75 196 251.5 196 107 196 C107 233.29 107 270.58 107 309 C101.39 309 95.78 309 90 309 C90 271.71 90 234.42 90 196 C65.91 196 41.82 196 17 196 C17 233.29 17 270.58 17 309 C11.39 309 5.78 309 0 309 C0 271.71 0 234.42 0 196 C-77.88 196 -155.76 196 -236 196 C-236 190.39 -236 184.78 -236 179 C-158.12 179 -80.24 179 0 179 C0 119.93 0 60.86 0 0 Z " fill="#000000" transform="translate(333,210)"/>
<path d="M0 0 C9.28018264 6.71387515 15.98021909 14.55457485 18 26 C18 28.64 18 31.28 18 34 C-3.12 34 -24.24 34 -46 34 C-42.33353506 48.88394284 -42.33353506 48.88394284 -32 59 C-25.19711103 62.71611556 -17.71096966 63.2446596 -10.25 61.2734375 C-1.59287395 58.104311 2.75306726 52.26637077 8 45 C10.64 46.32 13.28 47.64 16 49 C11.3145194 58.67325028 5.17491426 65.16480393 -4.859375 69.30859375 C-15.66236687 72.79788127 -27.27661014 71.85533299 -37.37109375 66.81640625 C-45.97171398 61.69664412 -51.26524925 53.4609038 -54.33984375 44.05078125 C-56.72781762 33.01523335 -55.47632255 22.48261019 -49.6796875 12.79296875 C-44.14687133 4.88678608 -37.18941017 -1.29914961 -27.671875 -3.55078125 C-18.10859479 -5.15864269 -8.69574571 -4.44290833 0 0 Z M-38.16796875 11.8203125 C-41.08492202 15.29080274 -45 21.27679026 -45 26 C-27.51 26 -10.02 26 8 26 C4.96287108 16.88861324 2.42128306 11.02750315 -6.1875 6.5625 C-17.59088652 1.38336519 -29.04973721 3.43945274 -38.16796875 11.8203125 Z " fill="#000000" transform="translate(509,303)"/>
<path d="M0 0 C0.7734375 0.495 0.7734375 0.495 1.5625 1 C-0.3125 5.75 -0.3125 5.75 -1.4375 8 C-2.01757812 7.95359375 -2.59765625 7.9071875 -3.1953125 7.859375 C-8.84565512 7.59830306 -12.08139822 8.03990747 -16.4375 12 C-25.76375988 22.77701142 -23.83492948 39.37549106 -24.0625 52.75 C-24.10076544 54.62241229 -24.13982184 56.49480859 -24.1796875 58.3671875 C-24.27474004 62.91132549 -24.35910338 67.45554539 -24.4375 72 C-27.4075 72 -30.3775 72 -33.4375 72 C-33.4375 48.57 -33.4375 25.14 -33.4375 1 C-30.4675 1 -27.4975 1 -24.4375 1 C-24.1075 3.64 -23.7775 6.28 -23.4375 9 C-23.01339844 8.52949219 -22.58929687 8.05898438 -22.15234375 7.57421875 C-16.13461856 1.18617201 -9.13784077 -3.74885775 0 0 Z " fill="#000000" transform="translate(575.4375,300)"/>
<path d="M0 0 C2.34791198 2.12594551 4.18153575 4.41676106 6 7 C6.99849575 8.3344602 7.99813161 9.66807001 9 11 C9.67095703 10.20335937 9.67095703 10.20335937 10.35546875 9.390625 C16.39162761 2.33771444 21.89759247 -3.16442264 31.45703125 -4.2890625 C38.45671323 -4.52561089 43.73474323 -2.97434131 49.6875 0.625 C55.72707843 6.82781028 58.13432383 13.79290751 58.11352539 22.34106445 C58.11341209 23.90211662 58.11341209 23.90211662 58.11329651 25.4947052 C58.10813522 26.6063353 58.10297394 27.71796539 58.09765625 28.86328125 C58.0962413 30.01040085 58.09482635 31.15752045 58.09336853 32.33940125 C58.08777861 35.99712754 58.07522789 39.65479225 58.0625 43.3125 C58.0574837 45.79492099 58.05292102 48.27734294 58.04882812 50.75976562 C58.03781247 56.8398647 58.0210843 62.91992795 58 69 C55.03 69 52.06 69 49 69 C48.99413376 68.36408432 48.98826752 67.72816864 48.98222351 67.07298279 C48.91815098 60.43760751 48.83369533 53.80271101 48.73754883 47.16772461 C48.70435196 44.69350508 48.67630382 42.21921078 48.65356445 39.74487305 C48.61992299 36.18245666 48.56760013 32.62072228 48.51171875 29.05859375 C48.50532883 27.95728622 48.4989389 26.8559787 48.49235535 25.72129822 C48.37840687 19.73119127 47.95270395 15.26231936 45 10 C40.40880432 5.63836411 36.56632792 4.62656124 30.40625 4.7265625 C24.82697463 5.36057106 20.56076944 8.09382983 16.6875 12.0625 C8.98597534 22.37418828 10.45482732 36.46885289 10.3125 48.6875 C10.27927351 50.66082924 10.24477906 52.63413755 10.20898438 54.60742188 C10.12469294 59.40483146 10.0575978 64.20219872 10 69 C7.03 69 4.06 69 1 69 C0.970271 67.09492676 0.970271 67.09492676 0.93994141 65.15136719 C0.86320793 60.38751166 0.77460155 55.62393498 0.68261719 50.86035156 C0.64460476 48.8083247 0.60970644 46.75623747 0.578125 44.70410156 C1.44321745 26.17263748 1.44321745 26.17263748 -4.3125 9.375 C-8.69046444 5.50610119 -12.06016139 4.57276801 -17.953125 4.75 C-23.73317108 5.45595983 -29.29844335 8.50678094 -33 13 C-37.64343999 21.57705476 -38.11447754 30.54962208 -38.31640625 40.09375 C-38.33718735 40.92588013 -38.35796844 41.75801025 -38.37937927 42.61535645 C-38.44416194 45.24349636 -38.50342412 47.87172625 -38.5625 50.5 C-38.60575322 52.29427971 -38.64936954 54.0885507 -38.69335938 55.8828125 C-38.79976894 60.25511885 -38.90123163 64.62751463 -39 69 C-41.97 69 -44.94 69 -48 69 C-48 45.57 -48 22.14 -48 -2 C-45.03 -2 -42.06 -2 -39 -2 C-38.67 1.63 -38.34 5.26 -38 9 C-37.01 7.7625 -36.02 6.525 -35 5.25 C-25.86945375 -5.21401345 -11.92238042 -6.95472191 0 0 Z " fill="#000000" transform="translate(633,303)"/>
<path d="M0 0 C3.53393558 2.58023023 6.7659462 5.38543912 9.73828125 8.60546875 C10.06828125 4.97546875 10.39828125 1.34546875 10.73828125 -2.39453125 C13.70828125 -2.39453125 16.67828125 -2.39453125 19.73828125 -2.39453125 C19.73828125 21.03546875 19.73828125 44.46546875 19.73828125 68.60546875 C16.76828125 68.60546875 13.79828125 68.60546875 10.73828125 68.60546875 C10.40828125 65.30546875 10.07828125 62.00546875 9.73828125 58.60546875 C8.78953125 59.49234375 7.84078125 60.37921875 6.86328125 61.29296875 C-1.48656503 68.46941504 -9.99891215 70.99999906 -20.8125 70.87890625 C-31.17114136 70.0577229 -39.49929436 65.03500317 -46.26953125 57.31640625 C-53.22238501 48.15260318 -55.54720787 37.99957685 -54.26171875 26.60546875 C-52.01338718 15.95265963 -47.13131589 8.25907868 -38.44921875 1.73046875 C-26.98339632 -5.73443981 -12.01080107 -7.40562346 0 0 Z M-38.5703125 13.38671875 C-43.82361961 20.27789298 -45.82428601 28.02631807 -45.26171875 36.60546875 C-43.36060572 46.4654787 -38.46946685 53.86004508 -30.26171875 59.60546875 C-23.48571839 63.31506718 -15.97932767 63.86802308 -8.546875 61.87890625 C0.00082539 58.71689979 5.78228357 53.92052801 9.73828125 45.60546875 C12.74670329 36.54902728 12.55575881 27.39650541 8.73828125 18.60546875 C3.68248393 11.40020071 -2.41261117 5.39810565 -11.26171875 3.60546875 C-22.3650124 2.52351841 -30.92344952 5.10647924 -38.5703125 13.38671875 Z " fill="#000000" transform="translate(762.26171875,303.39453125)"/>
<path d="M0 0 C6.64070288 5.04293978 9.63190805 10.8205546 11 19 C11.08263667 20.71758657 11.11787873 22.43790288 11.11352539 24.1574707 C11.11344986 25.15813065 11.11337433 26.15879059 11.11329651 27.18977356 C11.10813522 28.2576561 11.10297394 29.32553864 11.09765625 30.42578125 C11.0962413 31.52850876 11.09482635 32.63123627 11.09336853 33.76737976 C11.08778004 37.28244767 11.07522959 40.79745141 11.0625 44.3125 C11.05748352 46.69856679 11.05292087 49.08463457 11.04882812 51.47070312 C11.03781437 57.3138239 11.02108764 63.15690737 11 69 C8.03 69 5.06 69 2 69 C1.98541748 67.55753906 1.97083496 66.11507812 1.95581055 64.62890625 C1.89763828 59.25382263 1.82040617 53.87914963 1.73754883 48.50439453 C1.70438847 46.18252245 1.67632913 43.86057149 1.65356445 41.53857422 C1.61985528 38.19204232 1.56752991 34.84622756 1.51171875 31.5 C1.50532883 30.4694751 1.4989389 29.4389502 1.49235535 28.37719727 C1.34232427 20.94609798 0.50764033 15.03556461 -4.375 9.125 C-9.00796489 5.37450461 -12.80929101 4.6000655 -18.66015625 4.74609375 C-24.66840925 5.39807446 -29.66492069 7.78533956 -34 12 C-42.79480064 23.55888084 -41.20678314 38.82325377 -41.5625 52.6875 C-41.60580192 54.27539933 -41.64941943 55.86329008 -41.69335938 57.45117188 C-41.79920689 61.30069221 -41.90079909 65.15030289 -42 69 C-44.97 69 -47.94 69 -51 69 C-51 45.57 -51 22.14 -51 -2 C-48.03 -2 -45.06 -2 -42 -2 C-41.67 1.63 -41.34 5.26 -41 9 C-40.05125 7.948125 -39.1025 6.89625 -38.125 5.8125 C-27.72704293 -4.62781128 -12.91721384 -7.36888038 0 0 Z " fill="#000000" transform="translate(854,303)"/>
<path d="M0 0 C2 1.625 2 1.625 3 4 C2.93439072 7.739729 2.76345433 10.0603639 0.375 13 C-3.11581787 14.46981805 -5.39148956 13.98413921 -9 13 C-11 11.375 -11 11.375 -12 9 C-11.93439072 5.260271 -11.76345433 2.9396361 -9.375 0 C-5.88418213 -1.46981805 -3.60851044 -0.98413921 0 0 Z " fill="#000000" transform="translate(468,419)"/>
<path d="M0 0 C2.97 0 5.94 0 9 0 C9 9.24 9 18.48 9 28 C13.95 28 18.9 28 24 28 C24 30.64 24 33.28 24 36 C19.05 36 14.1 36 9 36 C9 56.79 9 77.58 9 99 C6.03 99 3.06 99 0 99 C0 78.21 0 57.42 0 36 C-3.96 36 -7.92 36 -12 36 C-12 33.36 -12 30.72 -12 28 C-8.04 28 -4.08 28 0 28 C0 18.76 0 9.52 0 0 Z " fill="#000000" transform="translate(495,420)"/>
<path d="M0 0 C2.97 0 5.94 0 9 0 C9 9.24 9 18.48 9 28 C13.95 28 18.9 28 24 28 C24 30.64 24 33.28 24 36 C19.05 36 14.1 36 9 36 C9 56.79 9 77.58 9 99 C6.03 99 3.06 99 0 99 C0 78.21 0 57.42 0 36 C-3.96 36 -7.92 36 -12 36 C-12 33.36 -12 30.72 -12 28 C-8.04 28 -4.08 28 0 28 C0 18.76 0 9.52 0 0 Z " fill="#000000" transform="translate(715,420)"/>
<path d="M0 0 C1.88124084 0.30265808 1.88124084 0.30265808 4 1 C5.48867065 3.4737219 6.6925795 5.80761384 7.87109375 8.42578125 C8.22964447 9.19171097 8.58819519 9.95764069 8.95761108 10.7467804 C10.1313197 13.26255424 11.28436205 15.7872397 12.4375 18.3125 C13.2476331 20.05903875 14.05908509 21.80496631 14.87182617 23.55029297 C16.89370764 27.89969881 18.89985594 32.25615566 20.90197754 36.61468506 C22.46256059 40.00485439 24.03837954 43.38781981 25.6171875 46.76953125 C27.71088482 51.2581728 29.79737161 55.74999163 31.875 60.24609375 C34.13612897 65.13868403 36.40866473 70.02580045 38.6875 74.91015625 C39.60016843 76.86824982 40.51268008 78.82641637 41.42514038 80.78460693 C42.0127511 82.04470525 42.60097924 83.30451585 43.18984985 84.56402588 C43.9993754 86.29578947 44.80639534 88.02872368 45.61328125 89.76171875 C46.07516846 90.75131592 46.53705566 91.74091309 47.01293945 92.76049805 C48 95 48 95 48 96 C44.37 96 40.74 96 37 96 C36.58113525 95.13197754 36.16227051 94.26395508 35.73071289 93.36962891 C34.17844562 90.15292645 32.62599401 86.93631299 31.07348633 83.71972656 C30.40123537 82.32684726 29.72903459 80.93394374 29.05688477 79.54101562 C28.09144022 77.54030103 27.12581601 75.53967323 26.16015625 73.5390625 C25.85908463 72.91504547 25.558013 72.29102844 25.24781799 71.64810181 C24.17545689 69.42676173 23.10313031 67.20626062 22 65 C8.47 65 -5.06 65 -19 65 C-23.56476849 74.82689373 -23.56476849 74.82689373 -28.12475586 84.65600586 C-28.69627798 85.88403275 -29.2679627 87.11198397 -29.83984375 88.33984375 C-30.28559753 89.30380066 -30.28559753 89.30380066 -30.74035645 90.28723145 C-32.8859282 94.8859282 -32.8859282 94.8859282 -34 96 C-35.85287502 96.07226502 -37.70833878 96.0838122 -39.5625 96.0625 C-41.08037109 96.04896484 -41.08037109 96.04896484 -42.62890625 96.03515625 C-43.41136719 96.02355469 -44.19382812 96.01195312 -45 96 C-39.5560387 83.51456168 -33.72891242 71.23559446 -27.75 59 C-20.80659472 44.78787253 -14.04313413 30.50748744 -7.43994141 16.13378906 C-4.96728936 10.75247987 -2.48268389 5.37668708 0 0 Z M1 21 C-0.82209405 24.71350273 -2.63656605 28.43062527 -4.44433594 32.15112305 C-5.05916048 33.41383588 -5.67598653 34.67557634 -6.29492188 35.9362793 C-7.18899994 37.75832388 -8.07559786 39.58385263 -8.9609375 41.41015625 C-9.49509277 42.50465088 -10.02924805 43.59914551 -10.57958984 44.72680664 C-12.3196455 48.54126332 -12.3196455 48.54126332 -14 55 C-3.44 55 7.12 55 18 55 C15.91707999 48.75123997 13.25752175 42.979666 10.40478516 37.06665039 C9.49573633 35.17864478 8.59727319 33.28583349 7.69921875 31.39257812 C7.12816406 30.20470703 6.55710937 29.01683594 5.96875 27.79296875 C5.44732422 26.7052417 4.92589844 25.61751465 4.38867188 24.49682617 C3.24475652 21.88725601 3.24475652 21.88725601 1 21 Z " fill="#000000" transform="translate(145,421)"/>
<path d="M0 0 C0.7734375 0.495 0.7734375 0.495 1.5625 1 C-0.3125 5.75 -0.3125 5.75 -1.4375 8 C-2.01757812 7.95359375 -2.59765625 7.9071875 -3.1953125 7.859375 C-8.84565512 7.59830306 -12.08139822 8.03990747 -16.4375 12 C-25.76375988 22.77701142 -23.83492948 39.37549106 -24.0625 52.75 C-24.10076544 54.62241229 -24.13982184 56.49480859 -24.1796875 58.3671875 C-24.27474004 62.91132549 -24.35910338 67.45554539 -24.4375 72 C-27.4075 72 -30.3775 72 -33.4375 72 C-33.4375 48.57 -33.4375 25.14 -33.4375 1 C-30.4675 1 -27.4975 1 -24.4375 1 C-24.1075 3.64 -23.7775 6.28 -23.4375 9 C-23.01339844 8.52949219 -22.58929688 8.05898438 -22.15234375 7.57421875 C-16.13461856 1.18617201 -9.13784077 -3.74885775 0 0 Z " fill="#000000" transform="translate(236.4375,445)"/>
<path d="M0 0 C2.36319748 1.97187231 4.2390418 3.86278479 5.81640625 6.515625 C4.81640625 9.515625 4.81640625 9.515625 1.75390625 11.203125 C0.78453125 11.63625 -0.18484375 12.069375 -1.18359375 12.515625 C-1.58449219 12.05671875 -1.98539062 11.5978125 -2.3984375 11.125 C-8.27741042 4.77944192 -15.15700471 1.05466009 -23.84765625 0.27734375 C-34.20205904 0.01780067 -41.8708262 2.42257064 -49.4921875 9.58203125 C-54.85262893 15.71001856 -56.5745362 22.75188266 -56.45703125 30.73046875 C-55.6030363 39.42901727 -51.8141548 46.83611412 -45.18359375 52.515625 C-37.25362197 57.61452274 -29.48559056 58.25677717 -20.18359375 57.515625 C-12.2160387 55.74380327 -6.86591674 51.17049716 -1.18359375 45.515625 C1.12640625 46.835625 3.43640625 48.155625 5.81640625 49.515625 C3.09474341 56.19607015 -2.92165214 60.3953767 -9.18359375 63.515625 C-19.46421163 67.59859191 -31.31948648 68.25521131 -41.8125 64.55078125 C-52.57160343 59.85364384 -59.93064755 53.53579059 -64.45703125 42.59375 C-67.71434398 33.2771351 -67.24190846 23.05233489 -63.4453125 13.98046875 C-57.80437365 2.96055415 -49.07570878 -3.80908177 -37.49609375 -7.734375 C-24.30016889 -10.56943698 -10.91428514 -7.95958916 0 0 Z " fill="#000000" transform="translate(310.18359375,452.484375)"/>
<path d="M0 0 C9.28018264 6.71387515 15.98021909 14.55457485 18 26 C18 28.64 18 31.28 18 34 C-3.12 34 -24.24 34 -46 34 C-42.32924242 48.74406928 -42.32924242 48.74406928 -32 59 C-25.15098198 62.91372458 -17.80222739 63.23713891 -10.1796875 61.2734375 C-1.56831881 58.11165139 2.78105259 52.22761446 8 45 C10.64 46.32 13.28 47.64 16 49 C11.3145194 58.67325028 5.17491426 65.16480393 -4.859375 69.30859375 C-15.66236687 72.79788127 -27.27661014 71.85533299 -37.37109375 66.81640625 C-45.97171398 61.69664412 -51.26524925 53.4609038 -54.33984375 44.05078125 C-56.72781762 33.01523335 -55.47632255 22.48261019 -49.6796875 12.79296875 C-44.14687133 4.88678608 -37.18941017 -1.29914961 -27.671875 -3.55078125 C-18.10859479 -5.15864269 -8.69574571 -4.44290833 0 0 Z M-38.16796875 11.8203125 C-41.08492202 15.29080274 -45 21.27679026 -45 26 C-27.51 26 -10.02 26 8 26 C4.96287108 16.88861324 2.42128306 11.02750315 -6.1875 6.5625 C-17.59088652 1.38336519 -29.04973721 3.43945274 -38.16796875 11.8203125 Z " fill="#000000" transform="translate(584,450)"/>
<path d="M0 0 C2.36319748 1.97187231 4.2390418 3.86278479 5.81640625 6.515625 C4.81640625 9.515625 4.81640625 9.515625 1.75390625 11.203125 C0.78453125 11.63625 -0.18484375 12.069375 -1.18359375 12.515625 C-1.58449219 12.05671875 -1.98539063 11.5978125 -2.3984375 11.125 C-8.27741042 4.77944192 -15.15700471 1.05466009 -23.84765625 0.27734375 C-34.19857074 0.01788811 -41.87899354 2.41876904 -49.4921875 9.5859375 C-53.20040687 13.81656191 -55.63494415 18.89196658 -56.18359375 24.515625 C-56.24675781 25.14855469 -56.30992187 25.78148437 -56.375 26.43359375 C-56.83501924 34.81781534 -54.22475145 42.43906815 -48.93359375 48.953125 C-43.04563282 55.1323184 -36.02681989 57.61546349 -27.62109375 57.828125 C-16.3108103 57.67677084 -8.99574058 53.46279659 -1.18359375 45.515625 C1.12640625 46.835625 3.43640625 48.155625 5.81640625 49.515625 C3.09474341 56.19607015 -2.92165214 60.3953767 -9.18359375 63.515625 C-19.46421163 67.59859191 -31.31948648 68.25521131 -41.8125 64.55078125 C-52.57160343 59.85364384 -59.93064755 53.53579059 -64.45703125 42.59375 C-67.71434398 33.2771351 -67.24190846 23.05233489 -63.4453125 13.98046875 C-57.80437365 2.96055415 -49.07570878 -3.80908177 -37.49609375 -7.734375 C-24.30016889 -10.56943698 -10.91428514 -7.95958916 0 0 Z " fill="#000000" transform="translate(683.18359375,454.484375)"/>
<path d="M0 0 C1.17418913 0.92806102 2.34370027 1.86224304 3.5 2.8125 C1.6875 5.8125 1.6875 5.8125 -0.5 8.8125 C-3.87731856 8.8125 -4.4327964 8.36233086 -7 6.375 C-11.39677316 2.99064172 -14.93113138 2.33242512 -20.5 2.8125 C-23.25329021 4.60812405 -25.02627461 5.86504922 -26.5 8.8125 C-26.91459203 12.46090988 -26.69799268 14.43039985 -24.99609375 17.71484375 C-21.86868128 21.59596752 -18.60402081 23.33829162 -14.25 25.625 C-6.77674644 29.76774745 0.66055252 34.29415755 3.5 42.8125 C4.24049988 49.64694968 3.62632112 55.19008585 -0.5 60.8125 C-4.6549135 65.24309497 -8.88699493 68.33520593 -15.04296875 69.1484375 C-24.11303007 69.28241182 -31.74211498 67.11985935 -38.5 60.8125 C-38.15120368 57.55706771 -37.47866739 56.79376893 -34.9375 54.5625 C-34.133125 53.985 -33.32875 53.4075 -32.5 52.8125 C-32.02949219 53.23402344 -31.55898438 53.65554688 -31.07421875 54.08984375 C-30.45160156 54.63769531 -29.82898438 55.18554688 -29.1875 55.75 C-28.57261719 56.29527344 -27.95773437 56.84054687 -27.32421875 57.40234375 C-23.50961775 60.35110383 -19.12523523 60.31937509 -14.5 59.8125 C-10.85668923 58.19325077 -8.29574481 56.40398961 -6.5 52.8125 C-5.96767634 49.69460429 -5.71190206 46.88711895 -6.5 43.8125 C-10.14679183 39.37323225 -14.6222858 36.69233126 -19.5 33.8125 C-26.41069158 29.73238689 -32.71310729 25.73314245 -35.5 17.8125 C-36.42881196 11.15771538 -35.98602117 5.98457034 -31.99609375 0.46875 C-22.80800553 -9.70291946 -9.97177828 -7.42616587 0 0 Z " fill="#000000" transform="translate(784.5,452.1875)"/>
<path d="M0 0 C2.97 0 5.94 0 9 0 C9 23.43 9 46.86 9 71 C6.03 71 3.06 71 0 71 C0 47.57 0 24.14 0 0 Z " fill="#000000" transform="translate(459,448)"/>
</svg>
